<?xml version="1.0" encoding="UTF-8"?>
<svg version="1.1" xmlns="http://www.w3.org/2000/svg" width="161" height="134">
<path d="M0 0 C53.13 0 106.26 0 161 0 C161 44.22 161 88.44 161 134 C107.87 134 54.74 134 0 134 C0 89.78 0 45.56 0 0 Z " fill="#161616" transform="translate(0,0)"/>
<path d="M0 0 C11.075625 -0.12375 11.075625 -0.12375 22.375 -0.25 C25.8407251 -0.30462402 25.8407251 -0.30462402 29.37646484 -0.36035156 C31.23794632 -0.37205004 33.09943815 -0.38223911 34.9609375 -0.390625 C36.37403198 -0.4213208 36.37403198 -0.4213208 37.81567383 -0.45263672 C45.79867509 -0.45677406 52.20726711 1.57910666 58.9375 5.875 C63.30286261 10.37264633 64.67022764 15.21665946 65.1328125 21.33203125 C64.90331102 25.94231097 63.3995398 30.07282526 61 34 C57.60612691 37 57.60612691 37 55 37 C56.89620416 39.00154884 58.80146297 40.61779437 61 42.3125 C64.98704426 45.69454501 66.77969561 48.65620609 67.28125 53.9921875 C67.50551794 62.08452232 66.98439976 68.24818316 61.8125 74.75 C55.54643931 79.76284855 49.26002541 82.13570255 41.2097168 82.11352539 C40.27639526 82.11340454 39.34307373 82.11328369 38.38146973 82.11315918 C36.93000549 82.10548523 36.93000549 82.10548523 35.44921875 82.09765625 C34.54997681 82.09664917 33.65073486 82.09564209 32.72424316 82.09460449 C29.37864906 82.08938911 26.03307319 82.07542787 22.6875 82.0625 C15.200625 82.041875 7.71375 82.02125 0 82 C0 54.94 0 27.88 0 0 Z " fill="#831529" transform="translate(17,28)"/>
<path d="M0 0 C-3.07517084 12.66970387 -3.07517084 12.66970387 -5 18 C-5.56847656 17.80664062 -6.13695312 17.61328125 -6.72265625 17.4140625 C-8.33755644 16.86947178 -9.95492075 16.33215275 -11.57421875 15.80078125 C-13.51521785 15.16003275 -15.44684636 14.49092443 -17.375 13.8125 C-22.20289113 12.73038647 -27.0824462 12.27176353 -32 13 C-33.87893981 14.20136761 -33.87893981 14.20136761 -35 16 C-35.48582895 19.5230496 -35.48582895 19.5230496 -34 23 C-31.27072321 25.00504609 -28.19287173 25.93716139 -25 27 C-3.84254675 34.10929384 -3.84254675 34.10929384 1.0625 42.625 C4.27854923 50.06211384 4.09125316 57.61691176 1.5625 65.25 C-1.46074781 71.90757761 -7.08112431 76.88388635 -13.6875 79.9375 C-27.19948452 84.27153277 -40.15689186 82.16442444 -53 77 C-55.39216848 75.74429875 -57.68532415 74.39776555 -60 73 C-58.87725238 70.14994834 -57.70566698 67.35246735 -56.4375 64.5625 C-55.11375792 61.28192181 -54.51310924 58.47448257 -54 55 C-53.10796875 55.42152344 -52.2159375 55.84304687 -51.296875 56.27734375 C-50.12640625 56.82519531 -48.9559375 57.37304688 -47.75 57.9375 C-46.58984375 58.48277344 -45.4296875 59.02804688 -44.234375 59.58984375 C-38.95368331 61.89217431 -34.47552253 62.12825247 -28.75 62.0625 C-28.00492188 62.05798828 -27.25984375 62.05347656 -26.4921875 62.04882812 C-24.6614236 62.03709246 -22.83070127 62.0191585 -21 62 C-20.67 59.03 -20.34 56.06 -20 53 C-25.22298091 50.16251518 -30.47141508 47.77705213 -36.07348633 45.80688477 C-44.02783674 43.0060054 -49.82665369 40.44268484 -54.875 33.375 C-58.20050528 26.35448886 -58.27147997 17.4561214 -56.1640625 10.0703125 C-52.74187338 2.51393518 -47.65489774 -1.00641941 -40.5625 -4.875 C-27.27243517 -9.33139079 -12.29222763 -5.28642775 0 0 Z " fill="#E8E8E7" transform="translate(142,32)"/>
<path d="M0 0 C0.33 0 0.66 0 1 0 C1.07476562 0.99 1.14953125 1.98 1.2265625 3 C1.95205379 10.81907391 2.77965519 17.55193276 9 23 C13.14927247 25.90002915 17.55330573 27.31341378 22.3125 28.875 C34.29491558 32.99567284 34.29491558 32.99567284 39 37 C39.75 40.0625 39.75 40.0625 39 43 C36.77300169 45.9285825 35.59984076 46.89607854 31.93359375 47.53125 C21.59279325 47.43881826 13.77922182 45.46158363 5 40 C4.81824219 40.67546875 4.63648437 41.3509375 4.44921875 42.046875 C4.19785156 42.93890625 3.94648437 43.8309375 3.6875 44.75 C3.32205078 46.07257813 3.32205078 46.07257813 2.94921875 47.421875 C1.97874669 50.05772505 0.78994356 51.85407326 -1 54 C-1 53.34 -1 52.68 -1 52 C-1.66 52 -2.32 52 -3 52 C-2.67 50.948125 -2.34 49.89625 -2 48.8125 C-0.22665552 41.52496029 0.77326589 33.1435201 -3.125 26.4375 C-5.61475802 23.06312881 -8.3580581 21.03271176 -12 19 C-10.3314814 17.88765426 -8.65243659 16.78935551 -6.9375 15.75 C-4.41003757 13.46713071 -3.97717857 11.21072957 -3 8 C-2.34 7.67 -1.68 7.34 -1 7 C-0.59270772 4.67843403 -0.25561323 2.3431213 0 0 Z " fill="#1C1C1B" transform="translate(84,48)"/>
<path d="M0 0 C2.84625 -0.061875 5.6925 -0.12375 8.625 -0.1875 C9.51010254 -0.21481201 10.39520508 -0.24212402 11.30712891 -0.27026367 C16.28263308 -0.32233681 19.70417885 0.20161808 24 3 C25.57455739 6.14911479 25.34799118 8.52008816 25 12 C22.5329567 16.21602826 22.5329567 16.21602826 20 18 C16.53198347 18.72886123 13.21161836 18.56926235 9.6875 18.375 C8.75615234 18.34792969 7.82480469 18.32085937 6.86523438 18.29296875 C4.57582365 18.22252534 2.28760986 18.1149125 0 18 C0 12.06 0 6.12 0 0 Z " fill="#1A1313" transform="translate(38,75)"/>
<path d="M0 0 C2.91722548 -0.08103404 5.83219516 -0.14051081 8.75 -0.1875 C9.575 -0.21263672 10.4 -0.23777344 11.25 -0.26367188 C14.79367856 -0.30653895 17.3224961 -0.32732167 20.546875 1.23046875 C22.36993622 3.45048685 22.53803938 4.64704628 22.5 7.5 C22.5103125 8.2734375 22.520625 9.046875 22.53125 9.84375 C22 12 22 12 20.546875 13.76953125 C16.66756171 15.64373936 12.99429531 15.31681837 8.75 15.1875 C7.90953125 15.17396484 7.0690625 15.16042969 6.203125 15.14648438 C4.13514062 15.11123464 2.06748729 15.0574302 0 15 C0 10.05 0 5.1 0 0 Z " fill="#1E1616" transform="translate(38,44)"/>
<path d="M0 0 C0.33 0 0.66 0 1 0 C1.33 4.62 1.66 9.24 2 14 C1.34 14 0.68 14 0 14 C0 14.99 0 15.98 0 17 C-0.66 17 -1.32 17 -2 17 C-1.34 11.39 -0.68 5.78 0 0 Z " fill="#250B0E" transform="translate(84,81)"/>
<path d="M0 0 C0.66 0.33 1.32 0.66 2 1 C-0.64 3.64 -3.28 6.28 -6 9 C-6.33 8.01 -6.66 7.02 -7 6 C-4.69 4.02 -2.38 2.04 0 0 Z " fill="#D6D6D5" transform="translate(96,30)"/>
</svg>
